<svg version="1.2" xmlns="http://www.w3.org/2000/svg" viewBox="0 0 1640 664" width="1640" height="664">
	<style>
		.s0 { fill: #ecd60e } 
		.s1 { fill: #1936dc } 
		.s2 { fill: #000000 } 
		.s3 { fill: #ecd60e;stroke: #1936dc;stroke-miterlimit:100;stroke-width: 5 } 
	</style>
	<path id="WEBPSERVER" class="s0" aria-label="WEBPSERVER"  d="m80.8 404v-251.7h239.1v251.7zm143.7-34.2h42.6l45.3-186h-42l-24.6 101.1-24.6-101.1h-42.6l-24.6 101.1-24.6-101.1h-42l45.3 186h42.6l24.6-100.8zm92.1 34.2v-251.7h137.4v251.7zm53.1-178.2h72v-42h-114v186h114v-42h-72v-30h53.1v-42h-53.1zm79.5-73.5h129.6v251.7h-129.6zm118.5 168.3q0-14.4-7.5-25.8-7.2-11.7-18.9-18 11.7-6 18.9-17.7 7.5-11.7 7.5-26.1 0-10.2-3.9-18.9-3.9-9-10.5-15.6-6.6-6.9-15.6-10.8-9-3.9-19.2-3.9h-1.2-57v186h57 1.2q10.2 0 19.2-3.9 9-3.9 15.6-10.5 6.6-6.6 10.5-15.6 3.9-9 3.9-19.2zm6.1-168.3h136.2v251.7h-136.2zm68.1 147h0.3q12 0 22.5-4.5 10.5-4.5 18.3-12.3 8.1-7.8 12.6-18.3 4.5-10.5 4.5-22.5 0-12-4.5-22.5-4.5-10.5-12.6-18.3-7.8-8.1-18.3-12.6-10.5-4.5-22.5-4.5h-0.3-56.4v186h42v-70.5zm62.2-146.7h139.2v251.7h-139.2zm123.3 159.9q0-11.7-4.5-21.9-4.5-10.5-12.3-18-7.8-7.8-18.3-12-10.5-4.5-22.2-4.5-6.6 0-11.1-3.9-4.5-4.2-4.5-10.5 0-1.5 0.6-4.5 1.5-4.8 5.7-7.8 4.2-3 9.3-3 6.3 0 10.8 4.5 4.5 4.5 4.5 10.8h42q0-11.7-4.5-22.2-4.5-10.5-12.3-18.3-7.8-8.1-18.3-12.6-10.5-4.5-22.2-4.5-9.6 0-18.6 3-8.7 3-15.9 8.4-7.2 5.4-12.6 12.9-5.1 7.5-7.8 16.2-2.7 8.1-2.7 17.1 0 12 4.5 22.2 4.8 10.2 12.6 18 7.8 7.5 18 12 10.5 4.2 22.5 4.2 6.3 0 10.8 4.2 4.5 3.9 4.5 10.5 0 1.5-0.6 4.5-1.5 4.8-5.7 7.8-3.9 3-9 3-6.6 0-11.1-4.5-4.5-4.5-4.5-11.1h-42q0 12 4.5 22.5 4.5 10.5 12.3 18.3 7.8 7.8 18.3 12.3 10.5 4.5 22.5 4.5 9.6 0 18.3-3 9-3 16.2-8.4 7.2-5.4 12.3-12.9 5.4-7.5 8.1-16.2 2.4-8.7 2.4-17.1zm9.2 91.5v-251.7h137.4v251.7zm53.1-178.2h72v-42h-114v186h114v-42h-72v-30h53.1v-42h-53.1zm77.4-73.5h140.7v251.7h-140.7zm87.6 217.5h43.5l-35.4-76.8q14.4-6.9 23.1-20.4 8.7-13.8 8.7-30.9 0-12-4.8-22.5-4.5-10.5-12.3-18.3-7.8-8.1-18.3-12.6-10.5-4.5-22.5-4.5h-0.3-56.4v186h42v-70.5h0.3zm49.9 34.2v-251.7h188.7v251.7zm72.3-34.2h42.6l64.5-186h-42l-43.8 126.6-43.8-126.6h-42zm110.7 34.2v-251.7h137.4v251.7zm53.1-178.2h72v-42h-114v186h114v-42h-72v-30h53.1v-42h-53.1zm77.4-73.5h140.7v251.7h-140.7zm87.6 217.5h43.5l-35.4-76.8q14.4-6.9 23.1-20.4 8.7-13.8 8.7-30.9 0-12-4.8-22.5-4.5-10.5-12.3-18.3-7.8-8.1-18.3-12.6-10.5-4.5-22.5-4.5h-0.3-56.4v186h42v-70.5h0.3z"/>
	<path id="WEBPSERVER" class="s1" aria-label="WEBPSERVER"  d="m213.9 172.9h63.2l-58.9 207.3h-45.9l-15.9-73.1q-4.6 18.1-9.2 37-4.3 18.6-8.9 36.1h-48.9l-53.2-207.3h60.5l18.6 79.1 18.4-79.1h43.5l18.3 79.1zm5.4 6.5l-20.8 89.1h-5.9l-20.8-89.1h-32.7l-20.8 89.1h-5.9l-21.1-89.1h-46.4l49.9 194.4h38.1l20.8-83.7 5.9 0.2 18.1 83.5h35.4l55.4-194.4zm200 45.3h-77.7v26h57.2v51.8h-57.2v25.9h77.7v51.9h-129.6v-207.4h129.6zm-6.4-6.5v-38.9h-116.7v194.4h116.7v-38.8h-77.8v-38.9h57.2v-38.9h-57.2v-38.9zm129.1 6q0 16.2-6.2 28-6.2 11.6-14.3 17.6 9.4 2.7 15.9 8.6 6.8 5.7 10.8 13 4.1 7.3 6 15.4 1.9 8.1 1.9 15.1 0 11.6-3.6 22.4-3.5 10.5-10.7 18.6-7.1 8.1-17.6 13-10.5 4.6-24.6 4.6h-68.8v-207.4h51.3q15.4 0.3 26.7 4.3 11.4 4.1 18.6 11.1 7.3 6.8 10.8 15.9 3.8 9.2 3.8 19.8zm-33.5 50.4v-6.4q4.4 0 9.2-3.3 4.9-3.2 8.7-8.9 4-5.9 6.4-14 2.7-8.1 2.7-17.8 0-9.2-3.2-17.1-3.2-8.1-9.7-14-6.5-6.2-16.8-9.7-10-3.5-23.7-3.8h-44.8v194.4h62.3q12.4 0 21.6-4 9.5-4.4 15.7-11.4 6.5-7.3 9.4-16.7 3.3-9.5 3.3-20 0-7.3-2.2-15.4-2.1-8.4-7-15.4-4.9-7-12.7-11.6-7.8-4.9-19.2-4.9zm127.5-101.7h0.3q13.8 0 24.9 4.8 11 4.9 18.8 13.8 7.9 8.9 12.2 21.6 4.3 12.4 4.3 28.1 0 15.1-4.3 27.8-4.3 12.4-12.2 21.6-7.8 8.9-19.1 14-11.1 4.9-24.9 4.9h-11.6v70.7h-52.6v-207.3zm0.2 6.4h-0.2-57.8v194.4h39.7v-70.7h18.3q12.2 0 22.2-4.3 10-4.6 17-12.7 7-8.4 10.8-19.7 3.8-11.4 3.8-25.1 0-14.1-3.8-25.4-3.8-11.6-10.8-19.7-7-8.1-17-12.4-10-4.4-22.2-4.4zm210.2 151v0.2q-0.8 10.3-5.9 19.5-5.2 8.9-14.4 15.6-9.1 6.8-22.4 10.8-12.9 3.8-29.1 3.8-12.7 0-24.1-3.5-11.3-3.5-20.5-10-8.9-6.7-15.4-16.2-6.4-9.7-9.7-21.6l46.2-19.2 2.7 6q-0.3 0 1.3 2.4 1.9 2.4 5.2 5.4 3.2 2.7 7.3 4.9 4 2.1 8.3 1.6 1.9-0.3 3.8-0.8 1.9-0.8 3.5-2.2 1.6-1.6 2.4-3.5 1.1-2.1 0.9-5.1-0.3-3.5-3.6-7-2.9-3.5-8.3-7.3-5.4-3.5-10.3-6.5-4.8-3.2-9.4-6.2-10.3-6.2-18.9-11.9-8.4-5.9-14.6-12.7-6.2-6.7-9.7-15.4-3.3-8.9-3.3-21.3 0-14 5.7-24.6 5.7-10.5 15.1-17.5 9.5-7.3 21.6-11.1 12.2-3.8 25.1-4 15.7 0 27.6 4.5 11.8 4.6 19.9 11.9 8.1 7.3 12.7 16.5 4.6 9.2 6 18.1l-45.7 18.1q-0.8-3.3-2.4-7-1.6-3.8-4-7.1-2.5-3.5-6-5.6-3.5-2.2-7.8-2.2-4.3 0-7.8 2.7-3.3 2.4-3.3 7.6 0 3.7 3.8 7.3 4.1 3.5 12.2 9.4h-0.3q12.7 7 24.6 14.3 11.8 7.3 20.7 16.5 9.2 9.2 14.6 21 5.7 11.7 5.7 27.6zm-6.5-0.3v-3.5q0-14.6-5.4-25.4-5.1-11.1-14-19.7-8.9-8.6-20.5-15.7-11.4-7-23.5-13.7-9.2-6.8-13.5-10.8-4.4-4.3-4.4-10.8 0-8.4 5.4-12.4 5.4-4.4 12.2-4.4 5.4 0 9.4 1.9 4.4 1.9 7.3 4.9 3 2.7 4.9 6.2 2.2 3.5 3.2 6.7 8.7-3.5 16.8-6.7 8.1-3.2 17-6.8-1.6-7.2-6-14.5-4-7.3-11.3-13-7-5.9-17.5-9.4-10.3-3.6-24.1-3.6-11.9 0.3-22.9 3.8-10.8 3.3-19.5 9.7-8.3 6.3-13.5 15.7-5.1 9.2-5.1 21.6 0 11.1 3.2 18.9 3.3 7.8 9 14.3 5.9 6.2 13.7 11.6 7.9 5.4 17.3 11.1l20.3 12.7q7 4.6 10.5 9.2 3.8 4.6 4 10 0.3 4.5-1.3 8.1-1.4 3.2-3.8 5.4-2.2 2.1-5.1 3.5-3 1.3-5.7 1.6-4.9 0.5-9.7-1.4-4.6-1.9-8.4-4.8-3.8-3-6.5-6.2-2.4-3.5-3.5-6.5l-35.9 15.1q6.2 19.4 22.7 30.2 16.5 10.8 38.9 10.8 14.6 0 26.2-3.5 11.8-3.5 20.2-9.4 8.4-6 13.2-13.8 4.9-8.1 5.7-17zm147.4-105.3h-77.7v25.9h57.2v51.9h-57.2v25.9h77.7v51.8h-129.6v-207.3h129.6zm-6.5-6.5v-38.9h-116.6v194.4h116.6v-38.9h-77.7v-38.9h57.2v-38.8h-57.2v-38.9zm151.5 162h-59.7l-22.1-52.9v52.9h-51.8v-207.4h64.5q18.1 0 30.2 5.7 12.2 5.4 19.5 14.8 7.3 9.2 10.2 21.6 3.3 12.2 3.3 25.7 0 12.4-3.8 22.4-3.8 10-9.5 17.3-5.4 7.3-11.6 12.1-5.9 4.6-10.8 6.5 10 19.5 20.8 40.8 11.1 21 20.8 40.5zm-10.8-6.5l-40.8-80.2q3.5 0 10-3.5 6.8-3.5 13.3-10.3 6.4-6.7 11-16.4 4.9-10 4.9-22.7 0-12.4-2.7-23.5-2.7-11.1-9.5-19.4-6.4-8.4-17.5-13.3-10.8-5.1-27.3-5.1h-57.8v194.4h38.9q0-15.7 0.3-31.9 0.3-16.2 0.3-31.5l5.6-1.1 27 64.5zm124-200.9h59.9l-66.6 207.4h-45.1l-63.8-207.4h60l28.1 83.7q6.7-20.8 13.7-42.1 7.3-21.3 13.8-41.6zm4.6 6.5l-32.1 97.7-32.4-97.7h-47q15.1 49.4 30 97.2 14.8 47.8 29.9 97.2h35.9q7.9-24.8 15.7-48.9 7.8-24.3 15.4-48.3 7.8-24 15.6-48.1 7.9-24.3 15.7-49.1zm194.2 45.4h-77.8v25.9h57.3v51.8h-57.3v25.9h77.8v51.9h-129.6v-207.4h129.6zm-6.5-6.5v-38.8h-116.6v194.4h116.6v-38.9h-77.8v-38.9h57.3v-38.9h-57.3v-38.9zm151.6 162h-59.7l-22.1-52.9v52.9h-51.9v-207.3h64.6q18 0 30.2 5.7 12.1 5.4 19.4 14.8 7.3 9.2 10.3 21.6 3.2 12.2 3.2 25.7 0 12.4-3.7 22.4-3.8 10-9.5 17.2-5.4 7.3-11.6 12.2-5.9 4.6-10.8 6.5 10 19.4 20.8 40.7 11.1 21.1 20.8 40.5zm-10.8-6.4l-40.8-80.2q3.5 0 10-3.5 6.7-3.5 13.2-10.3 6.5-6.7 11.1-16.5 4.9-10 4.9-22.6 0-12.5-2.7-23.5-2.7-11.1-9.5-19.5-6.5-8.3-17.5-13.2-10.8-5.1-27.3-5.1h-57.8v194.4h38.9q0-15.7 0.3-31.9 0.2-16.2 0.2-31.6l5.7-1.1 27 64.6z"/>
	<path id="WEBPSERVER" class="s2" aria-label="WEBPSERVER"  d="m234.2 170.1h45.3l-48.8 200.9h-46.2l-26.5-109.1-26.4 109.1h-46.2l-48.9-200.9h45.4l26.7 109.1 26.5-109.1h46.2l26.4 109.1zm185 45.4h-77.8v32.4h57.2v45.3h-57.2v32.4h77.8v45.4h-123.2v-200.9h123.2zm105.3 55.4q13 6.7 20.8 19.4 7.8 12.4 7.8 27.8 0 11.1-4.3 20.8-4 9.7-11.3 17-7 7-16.8 11.3-9.7 4.1-20.7 4.1h-1.4-61.6v-200.9h61.6 1.4q11 0 20.7 4.3 9.8 4.1 16.8 11.4 7.3 7 11.3 16.7 4.3 9.7 4.3 20.8 0 15.4-7.8 28.1-7.8 12.4-20.8 19.2zm106.8-100.8q13 0 24.3 4.9 11.4 4.9 19.7 13.5 8.7 8.4 13.5 19.7 4.9 11.4 4.9 24.3 0 13-4.9 24.3-4.8 11.4-13.5 20-8.3 8.4-19.7 13.2-11.3 4.9-24.3 4.9h-0.2-15.7v76.1h-45.4v-200.9h61.1zm197.9 138.6q0 4.8-0.8 9.4-0.6 4.6-1.9 9.2-3 9.4-8.7 17.5-5.6 8.1-13.5 14.1-7.8 5.6-17.2 8.9-9.5 3.2-20 3.2-13 0-24.3-4.8-11.1-4.9-19.7-13.3-8.4-8.6-13.3-19.9-4.8-11.4-4.8-24.3h45.3q0 7 4.9 12.1 4.9 4.9 11.9 4.9 5.6 0 10-3.3 4.3-3.5 5.9-8.6 0.8-2.2 0.8-4.9 0-7-4.8-11.3-4.9-4.3-11.9-4.3-13 0-24.3-4.6-11.1-4.9-19.7-13-8.4-8.4-13.3-19.4-4.8-11.1-4.8-24.1 0-4.5 0.5-9.1 0.8-4.6 2.2-9.2 2.9-9.5 8.6-17.6 5.7-8.1 13.5-13.7 7.8-6 17.3-9.2 9.4-3.3 20-3.3 12.9 0 24 4.9 11.3 4.9 19.7 13.5 8.7 8.4 13.5 19.7 4.9 11.4 4.9 24h-45.4q0-7-4.8-11.8-4.9-4.9-11.9-4.9-5.7 0-10 3.5-4.3 3.3-6 8.4-0.8 1.9-0.8 4.8 0 7.1 4.9 11.4 4.9 4.3 11.9 4.3 12.9 0 24 4.9 11.3 4.6 19.7 12.9 8.7 8.1 13.5 19.2 4.9 11.1 4.9 23.8zm139.9-93.2h-77.8v32.4h57.3v45.4h-57.3v32.4h77.8v45.3h-123.1v-200.9h123.1zm144.6 155.6h-46.7l-35.1-76.2h-0.6v76.2h-45.3v-200.9h61 0.3q12.9 0 24.3 4.8 11.6 4.9 19.9 13.5 8.7 8.4 13.5 19.8 4.9 11.3 4.9 24.3 0 18.3-9.4 33.2-9.5 14.5-24.9 22.4zm155-200.9h45.4l-69.9 200.9h-45.9l-70-200.9h45.4l47.5 136.6zm176.4 45.4h-77.8v32.4h57.3v45.3h-57.3v32.4h77.8v45.4h-123.1v-200.9h123.1zm145.6 155.5h-46.7l-35.1-76.1h-0.6v76.1h-45.3v-200.8h61 0.3q12.9 0 24.3 4.8 11.6 4.9 19.9 13.5 8.7 8.4 13.5 19.7 4.9 11.4 4.9 24.3 0 18.4-9.4 33.2-9.5 14.6-24.9 22.4z"/>
	<path id="Forme 1" class="s3" d="m469 228.3l3.03-24.31c0.22-1.71 1.66-2.99 3.39-2.99h17.95c1.59 0 2.88 1.29 2.88 2.89q0 0.52-0.18 1.01l-4.93 13.16h14.83c2.15 0 3.91 1.75 3.91 3.92 0 0.78-0.24 1.55-0.69 2.2l-20.45 29.97c-0.63 0.91-1.67 1.46-2.76 1.46h-0.31c-1.67 0-3.03-1.37-3.03-3.04q0-0.37 0.09-0.74l5-20.12h-15.32c-1.89 0-3.41-1.52-3.41-3.41z"/>
</svg>